<svg width="25" height="25" viewBox="0 0 25 25" fill="none" xmlns="http://www.w3.org/2000/svg">
<path fill-rule="evenodd" clip-rule="evenodd" d="M0 4.36337C0 2.08391 1.84787 0.236046 4.12733 0.236046H11.0062C11.766 0.236046 12.382 0.852001 12.382 1.61182C12.382 2.37164 11.766 2.9876 11.0062 2.9876H4.12733C3.36751 2.9876 2.75155 3.60355 2.75155 4.36337V20.8727C2.75155 21.6325 3.36751 22.2484 4.12733 22.2484H20.6366C21.3964 22.2484 22.0124 21.6325 22.0124 20.8727V12.618C22.0124 11.8582 22.6284 11.2422 23.3882 11.2422C24.148 11.2422 24.764 11.8582 24.764 12.618V20.8727C24.764 23.1521 22.9161 25 20.6366 25H4.12733C1.84787 25 0 23.1521 0 20.8727V4.36337Z" fill="#0F172B"/>
<path d="M19.6933 0.80591C20.7678 -0.268637 22.51 -0.268637 23.5845 0.80591C24.6591 1.88046 24.6591 3.62264 23.5845 4.69719L13.8563 14.4254C13.3191 14.9627 12.448 14.9627 11.9107 14.4254L9.96506 12.4798C9.42779 11.9425 9.42779 11.0714 9.96506 10.5341L19.6933 0.80591Z" fill="#0F172B"/>
<path d="M7.64534 13.9543C7.33832 13.6473 6.81356 13.6416 6.6907 14.058L5.79194 17.1046C5.50901 18.0636 6.32559 18.8802 7.28465 18.5973L10.3312 17.6985C10.7477 17.5757 10.7419 17.0509 10.4349 16.7439L7.64534 13.9543Z" fill="#0F172B"/>
</svg>
