<svg width="17" height="17" viewBox="0 0 17 17" fill="none" xmlns="http://www.w3.org/2000/svg">
<path d="M10.3247 10.0296L14.327 6.02441L13.04 4.73563L10.9816 2.67455L6.98928 6.67049C6.61819 6.57539 6.23365 6.52635 5.8441 6.52632C4.61891 6.52632 3.44356 7.01362 2.57722 7.88091L9.1102 14.4211C9.97654 13.5538 10.4633 12.3771 10.4633 11.1506C10.4633 10.7694 10.4155 10.3933 10.3247 10.0296Z" fill="#0F172B"/>
<path d="M5.73166 11.2632L1 16M16 7.69891L13.04 4.73563M9.30842 1L13.04 4.73563M13.04 4.73563L14.327 6.02441L10.3247 10.0296C10.4155 10.3933 10.4633 10.7694 10.4633 11.1506C10.4633 12.3771 9.97654 13.5538 9.11021 14.4211L2.57722 7.88091C3.44356 7.01362 4.61891 6.52632 5.8441 6.52632C6.23365 6.52635 6.61819 6.57539 6.98928 6.67049L10.9816 2.67455L13.04 4.73563Z" stroke="#0F172B" stroke-width="2" stroke-linecap="round"/>
</svg>
