<svg width="25" height="25" viewBox="0 0 25 25" fill="none" xmlns="http://www.w3.org/2000/svg">
<path fill-rule="evenodd" clip-rule="evenodd" d="M10.2941 0C4.60881 0 0 4.60881 0 10.2941C0 15.9793 4.60881 20.5881 10.2941 20.5881C12.6063 20.5881 14.7405 19.8258 16.459 18.5387L22.4896 24.5693C23.0639 25.1436 23.995 25.1436 24.5693 24.5693C25.1436 23.995 25.1436 23.0639 24.5693 22.4896L18.5387 16.459C19.8258 14.7405 20.5881 12.6063 20.5881 10.2941C20.5881 4.60881 15.9793 0 10.2941 0ZM2.94116 10.2941C2.94116 6.23317 6.23317 2.94116 10.2941 2.94116C14.355 2.94116 17.647 6.23317 17.647 10.2941C17.647 14.355 14.355 17.647 10.2941 17.647C6.23317 17.647 2.94116 14.355 2.94116 10.2941Z" fill="#0F172B"/>
</svg>
