<svg width="100" height="100" viewBox="0 0 100 100" fill="none" xmlns="http://www.w3.org/2000/svg">
<path fill-rule="evenodd" clip-rule="evenodd" d="M42.3779 12.6384C31.4636 13.437 21.7917 19.7085 16.6129 29.345C14.9029 32.5267 13.5402 36.8007 13.166 40.1551C12.9242 42.3226 12.879 42.5402 12.6709 42.5402C12.2921 42.5402 10.9558 43.6961 10.4203 44.4866C9.36023 46.0522 9.33785 46.2655 9.39071 54.3338L9.43801 61.5416L9.86346 62.4508C10.4134 63.6259 11.5112 64.793 12.5683 65.326C13.6338 65.8633 15.0637 66.0662 17.8119 66.0701L19.9947 66.0733V53.9888V41.9042H18.8834C17.5814 41.9042 17.6287 42.0222 18.0214 39.7576C19.4905 31.2859 24.8479 24.055 32.4563 20.2752C37.5659 17.7367 40.3485 17.2581 49.9978 17.2581C55.8333 17.2581 58.6442 17.4226 60.9218 17.8974C65.4206 18.8356 70.0794 21.2032 73.3759 24.2269C78.0678 28.5304 80.903 33.6762 81.9895 39.8603C82.3664 42.0053 82.4099 41.9042 81.1121 41.9042H80.0009V53.9888V66.0733L82.1836 66.0701C86.1133 66.0646 87.5629 65.6555 88.9612 64.1582C89.3712 63.7192 89.8981 62.9509 90.1321 62.4508L90.5575 61.5416L90.6074 54.3863C90.6512 48.0961 90.6252 47.1111 90.3918 46.2391C90.0588 44.994 89.1367 43.6835 88.1405 43.0389C87.0218 42.3151 86.9857 42.2685 86.9851 41.5402C86.9841 40.5191 86.5533 38.0486 86.0348 36.0915C83.1144 25.0658 74.267 16.321 63.2126 13.534C59.9337 12.7073 58.8395 12.6192 51.1884 12.5661C47.2594 12.5389 43.2947 12.5713 42.3779 12.6384ZM29.7576 34.6549C27.4316 35.2323 25.6076 37.0492 24.9785 39.4157C24.801 40.0833 24.7612 43.1158 24.7628 55.8174C24.764 65.9083 24.8223 71.6499 24.9279 72.1089C25.3019 73.7348 26.5787 75.4781 28.0114 76.3193C29.3748 77.1197 30.0284 77.2038 34.9061 77.205L39.4411 77.2059L43.4892 82.0016C45.7156 84.6392 47.7334 86.9423 47.9731 87.1194C48.5265 87.5282 49.7865 87.5555 50.3716 87.1715C50.5978 87.023 52.612 84.7374 54.8475 82.0924L58.9119 77.2833L64.575 77.203C70.0495 77.1256 70.2688 77.1105 71.1614 76.7505C72.5246 76.2007 73.9323 74.817 74.6167 73.3546L75.1591 72.1951L75.2071 56.4534C75.2415 45.1492 75.2039 40.4428 75.0739 39.7576C74.5924 37.2197 72.563 35.1477 70.0318 34.6096C68.7718 34.3418 30.8472 34.3844 29.7576 34.6549ZM41.1602 46.5733C41.8393 46.8574 42.4978 47.6568 42.6288 48.3556C42.7716 49.1185 42.3287 50.2317 41.7055 50.6763C40.9613 51.2071 39.747 51.2543 39.0443 50.7798C37.5101 49.7441 37.5962 47.5703 39.2051 46.7182C39.9913 46.3016 40.4328 46.269 41.1602 46.5733ZM59.5748 46.5733C60.2539 46.8574 60.9124 47.6568 61.0434 48.3556C61.1862 49.1185 60.7433 50.2317 60.1201 50.6763C59.3759 51.2071 58.1616 51.2543 57.4589 50.7798C55.9247 49.7441 56.0108 47.5703 57.6197 46.7182C58.4059 46.3016 58.8474 46.269 59.5748 46.5733ZM41.4624 57.4753C45.1679 60.4523 48.5521 61.4804 52.1872 60.7339C54.3249 60.2948 56.26 59.3017 58.5274 57.4798C59.8801 56.393 61.1126 56.4497 62.1166 57.645C62.9691 58.6596 62.8188 59.8574 61.7033 60.9393C60.726 61.887 58.8111 63.2131 57.4385 63.8924C51.2436 66.9584 44.9165 66.1765 39.0593 61.6211C37.9187 60.734 37.298 59.8375 37.298 59.077C37.298 58.4089 37.8992 57.4104 38.5271 57.0363C39.4549 56.4831 40.4041 56.6251 41.4624 57.4753Z" fill="#1E46A4"/>
</svg>
