<svg width="100" height="100" viewBox="0 0 100 100" fill="none" xmlns="http://www.w3.org/2000/svg">
<path fill-rule="evenodd" clip-rule="evenodd" d="M48.1154 9.61865C46.1798 10.1315 44.4815 11.5322 43.62 13.326C43.3516 13.8847 43.132 14.4372 43.132 14.5535C43.1319 14.7169 42.1906 14.7651 38.9978 14.7651H34.8637L34.3618 15.26L33.8599 15.7549V19.1626C33.8599 22.967 33.9581 23.3928 34.9105 23.7202C35.6796 23.9845 64.3204 23.9845 65.0895 23.7202C66.0419 23.3928 66.1401 22.967 66.1401 19.1626V15.7549L65.6382 15.26L65.1363 14.7651H61.0022C57.8094 14.7651 56.8681 14.7169 56.868 14.5535C56.868 14.4372 56.6484 13.8847 56.38 13.326C54.9289 10.3045 51.4377 8.73842 48.1154 9.61865ZM21.6344 18.4815C20.6059 18.6786 19.7021 19.3815 19.2004 20.3742L18.75 21.2654L18.751 54.3743C18.7515 77.0487 18.8089 87.6859 18.9329 88.1257C19.1791 89.0001 20.375 90.1934 21.2397 90.4277C22.2107 90.6908 77.7893 90.6908 78.7603 90.4277C79.625 90.1934 80.8209 89.0001 81.0671 88.1257C81.1911 87.6859 81.2485 77.0445 81.249 54.3604L81.25 21.2375L80.7703 20.332C80.421 19.6729 80.0625 19.2874 79.4533 18.9158L78.6162 18.4053L74.3741 18.3481L70.1319 18.2908L70.0592 20.8877C69.9931 23.2502 69.9457 23.5719 69.5347 24.453C68.9437 25.7196 67.7658 26.8381 66.551 27.2862C65.6083 27.634 65.4279 27.6374 49.772 27.5928L33.9457 27.548L33.1004 27.1377C31.9669 26.5877 31.0012 25.6014 30.4597 24.4408C30.0556 23.575 30.0065 23.2402 29.9411 20.9026L29.869 18.3206L26.0694 18.3401C23.9797 18.3508 21.984 18.4144 21.6344 18.4815ZM42.279 36.3549C43.2922 36.8717 43.5869 38.3629 42.8388 39.189C42.2196 39.8725 35.4799 45.8689 35.1161 46.0597C34.9097 46.1681 34.4153 46.2566 34.0172 46.2566C33.3281 46.2566 33.2047 46.1703 31.4339 44.4498C29.3875 42.4612 29.0664 41.9066 29.3947 40.9261C29.6743 40.0907 30.307 39.6536 31.2364 39.6536C31.9384 39.6536 32.09 39.7379 33.0913 40.686C33.8211 41.377 34.2562 41.6743 34.4071 41.5847C34.5311 41.5112 35.8302 40.3762 37.294 39.0625C38.7577 37.7488 40.1465 36.5446 40.38 36.3861C40.9056 36.0295 41.6178 36.0178 42.279 36.3549ZM69.1621 39.8906C69.6516 40.3733 69.7459 40.5882 69.7459 41.2222C69.7459 42.1651 69.2812 42.7938 68.4074 43.033C67.5731 43.2614 51.3336 43.2712 50.5294 43.0438C48.8257 42.562 48.4469 40.5082 49.9004 39.6341C50.4002 39.3337 50.9286 39.3161 59.5038 39.3156L68.5783 39.315L69.1621 39.8906ZM42.7455 53.6311C43.3429 54.2499 43.4581 54.8797 43.1113 55.6303C42.8992 56.0894 35.6432 62.6271 34.9385 62.994C34.0273 63.4686 33.4172 63.1669 31.489 61.2879C29.607 59.4538 29.1456 58.7472 29.329 57.9799C29.5769 56.9416 30.8367 56.1985 31.8247 56.5078C32.044 56.5764 32.688 57.0702 33.2562 57.6051L34.2891 58.5778L37.2081 55.9558C38.8135 54.5137 40.3589 53.2291 40.6422 53.1013C41.3673 52.7742 42.0953 52.9575 42.7455 53.6311ZM68.6128 56.3126C69.8458 56.8207 70.1602 58.3229 69.245 59.333L68.744 59.886L59.6295 59.9327C49.5652 59.9842 49.778 60.0047 49.2121 58.9257C48.7169 57.9815 49.2323 56.6563 50.2576 56.2381C50.4464 56.161 54.5247 56.0931 59.3204 56.0872C66.4078 56.0786 68.1471 56.1207 68.6128 56.3126ZM42.591 70.2184C42.8747 70.4538 43.1571 70.8728 43.2187 71.1496C43.4696 72.2757 43.2811 72.5153 39.3829 76.0237C37.3369 77.8651 35.4717 79.5018 35.2382 79.6605C34.7236 80.0104 33.8359 80.0331 33.2074 79.7126C32.4083 79.3049 29.4483 76.169 29.3202 75.5943C29.101 74.6101 29.9026 73.4328 30.8551 73.3403C31.7502 73.2536 32.0517 73.3942 33.1018 74.3885L34.2026 75.4308L34.5841 75.1081C34.794 74.9305 36.1269 73.7506 37.5464 72.486C38.9657 71.2213 40.2816 70.0998 40.4705 69.9938C41.0795 69.6518 42.0292 69.7523 42.591 70.2184ZM68.7699 73.1966C69.4349 73.532 69.738 74.0628 69.7421 74.8992C69.7452 75.5596 69.6587 75.7765 69.2175 76.2113L68.6892 76.7323H59.4437H50.198L49.6757 76.2988C48.7469 75.5283 48.8013 74.1063 49.7888 73.3403C50.2033 73.019 50.5302 73.0075 59.3065 73.0075C65.6619 73.0075 68.5076 73.0644 68.7699 73.1966Z" fill="#1E46A4"/>
</svg>
