<svg width="1338" height="262" viewBox="0 0 1338 262" fill="none" xmlns="http://www.w3.org/2000/svg">
<path fill-rule="evenodd" clip-rule="evenodd" d="M484.111 45.1633C483.333 45.8864 479.96 50.3128 476.617 54.9996C473.273 59.6865 470.375 63.7461 470.177 64.0208C469.979 64.2957 464.316 65.4781 457.593 66.6484C450.87 67.819 444.737 69.0987 443.964 69.492C441.921 70.5321 439.349 73.351 438.735 75.2245C438.442 76.1183 437.899 81.8104 437.528 87.8737L436.854 98.8978L427.66 106.161C422.604 110.155 417.996 114.022 417.42 114.752C416.202 116.297 415.333 119.897 415.672 121.988C415.802 122.788 418.428 128.01 421.508 133.594L427.108 143.745L423.21 153.915C421.066 159.509 419.176 164.903 419.009 165.901C418.577 168.485 420.093 172.244 422.333 174.141C423.303 174.963 428.396 178.2 433.649 181.334L443.201 187.032L445.526 198.192C446.806 204.331 448.205 209.931 448.635 210.637C449.76 212.484 452.849 214.854 454.845 215.401C455.788 215.659 462.019 216.158 468.691 216.509L480.823 217.147L488.707 225.513C493.043 230.114 497.268 234.324 498.096 234.87C499.832 236.013 503.75 236.816 506.064 236.503C506.939 236.384 512.655 233.983 518.766 231.166C524.877 228.349 530.155 226.132 530.495 226.24C530.835 226.348 535.839 227.953 541.615 229.807C547.391 231.661 553.063 233.287 554.22 233.419C556.955 233.732 561.102 232.447 562.921 230.723C563.686 229.997 567.215 225.335 570.762 220.362L577.212 211.322L589.485 209.187C602.168 206.98 603.552 206.557 606.144 204.089C608.263 202.071 608.761 199.671 609.472 188.046L610.152 176.94L619.26 169.798C629.128 162.061 630.329 160.851 631.07 157.905C631.921 154.519 631.351 152.93 625.427 142.17L619.902 132.137L623.677 122.298C628.236 110.418 628.562 108.941 627.347 105.672C626.131 102.403 624.888 101.414 613.353 94.5327L603.8 88.8338L601.455 77.6191C598.95 65.6389 598.49 64.4545 595.449 62.162C592.929 60.2625 591.14 59.9689 578.185 59.3319L566.202 58.7426L558.26 50.315C549.946 41.4936 547.951 39.8679 544.925 39.4484C541.225 38.9355 539.845 39.3706 528.318 44.6854L517.164 49.8284L506.023 46.2529C499.896 44.286 493.99 42.5553 492.899 42.4058C490.327 42.054 485.993 43.4138 484.111 45.1633Z" fill="#CCDBFD"/>
<path fill-rule="evenodd" clip-rule="evenodd" d="M1125.3 35.3242C1120.85 35.9124 1114.64 38.1867 1079.7 52.0235L1043.31 66.433L1033.78 64.078C1017.77 60.121 979.253 54.3287 968.959 54.3287C960.57 54.3287 951.743 57.803 945.969 63.3777C943.101 66.1456 942.395 67.2569 942.395 69.0021C942.395 72.6886 944.34 73.8073 960.585 79.4612C968.922 82.3627 978.29 85.6456 981.402 86.7556L987.062 88.7748L964.56 97.7627C952.184 102.706 941.592 106.8 941.022 106.86C940.452 106.92 932.418 102.319 923.169 96.6366C913.92 90.9531 905.538 85.8954 904.543 85.3965C902.901 84.5739 901.868 84.772 893.378 87.5379C879.524 92.051 878.37 94.0661 884.653 102.773C898.877 122.488 906.669 132.68 909.236 134.932C913.744 138.887 918.641 140.567 925.553 140.527C930.593 140.499 934.954 139.559 961.933 132.689C978.792 128.395 999.853 122.924 1008.73 120.531C1017.62 118.138 1024.94 116.238 1025.01 116.311C1025.09 116.382 1021.23 125.658 1016.45 136.922C1011.3 149.024 1007.75 158.295 1007.75 159.585C1007.74 162.085 1009.53 164.199 1012.2 164.869C1014.95 165.555 1026.35 163.435 1031.78 161.231C1041.78 157.168 1048.21 151.219 1061.31 133.9C1069.96 122.461 1076.09 113.022 1080.3 104.631L1083.2 98.8626L1094.14 95.0109C1123.6 84.6465 1147.46 74.6963 1156.88 68.8409C1165.16 63.6993 1168.08 59.4448 1168.08 52.5479C1168.08 45.8122 1164.2 40.2744 1157.88 37.9887C1156.27 37.4051 1149.74 36.4617 1143.37 35.8916C1132.01 34.8736 1129.34 34.7903 1125.3 35.3242Z" fill="#CCDBFD"/>
<path d="M633.611 89.5932C636.821 82.8228 643.342 71.1785 647.889 65.0644C653.669 57.29 665.846 50.8218 675.016 47.5038C689.777 42.1624 699.215 42.1844 714.894 41.6004C725.199 41.2167 735.948 41.0665 745.676 44.9308C754.764 48.541 760.517 56.1867 764.126 65.0644C767.502 73.3689 772.228 95.4598 758.643 97.3993C745.815 99.2306 734.282 89.1844 735.375 76.3877C736.949 57.9631 751.67 43.7163 767.065 35.3636C791.532 22.0888 819.719 18.315 847.2 19.408C861.38 19.972 872.359 24.2568 883.981 32.124C891.645 37.3123 900.368 43.7243 906.309 50.714C912.125 57.5571 919.158 73.5422 919.158 73.5422" stroke="#CCDBFD" stroke-width="5.59896" stroke-linecap="round" stroke-linejoin="round" stroke-dasharray="11.2 11.2"/>
<path d="M1065 146C1120.49 202.99 1236.15 208 1335 208" stroke="#CCDBFD" stroke-width="5.59896" stroke-linecap="round" stroke-dasharray="11.2 11.2"/>
<path d="M298.876 227.241C288.261 227.475 277.104 224.497 270.43 219.929C254.642 209.124 251.705 183.993 243.671 167.933C236.995 154.588 234.63 149.688 226.986 136.898C225.628 134.626 216.146 124.366 213.673 122.888C202.836 116.412 187.801 115.348 175.836 113.612C163.871 111.877 155.87 112.396 144.473 114.725C132.733 117.124 124.483 122.001 116.215 130.495C102.136 144.958 91.9205 164.04 80.5276 180.63C75.4152 188.074 70.8789 195.147 63.1625 200.229C55.9708 204.965 46.4702 207.432 38.1859 209.162C26.4468 211.613 14.9221 211.349 3 211.349M298.876 227.241C307.994 227.04 316.712 224.47 321.849 218.503C327.29 212.183 331.711 207.539 332.288 199.332C332.774 192.425 331.352 183.835 326.577 177.926C323.018 173.523 312.787 173.269 308.059 174.419C299.955 176.389 295.535 184.805 293.66 192.255C290.248 205.815 292.599 217.223 298.876 227.241ZM298.876 227.241C302.228 232.591 306.701 237.545 312.013 242.218C329.092 257.239 358.564 259.375 379.659 259.173C396.438 259.013 412.083 250.567 426.593 241.61C434.378 236.804 441.38 229.466 447.785 223.064" stroke="#CCDBFD" stroke-width="5.6" stroke-linecap="round" stroke-dasharray="11.2 11.2"/>
</svg>
