<svg width="100" height="100" viewBox="0 0 100 100" fill="none" xmlns="http://www.w3.org/2000/svg">
<path fill-rule="evenodd" clip-rule="evenodd" d="M74.9491 16.7961C73.7626 17.3462 70.37 20.0103 67.4092 22.7165C64.4491 25.4227 61.8367 27.637 61.6054 27.637C61.3735 27.637 55.0411 26.5449 47.5331 25.2102C40.0251 23.8754 33.2187 22.7834 32.4081 22.7834C31.4023 22.7834 30.1301 23.5454 28.4039 25.1821C26.1669 27.3032 25.9674 27.672 26.6825 28.3656C27.1274 28.797 32.2841 31.6326 38.1424 34.6672C44.0002 37.7013 48.7934 40.4673 48.7934 40.814C48.7934 41.1608 45.7691 44.4338 42.0728 48.088L35.3527 54.7321L31.1521 54.2694C22.517 53.3181 22.2549 53.3774 18.4998 57.1325C15.7224 59.9098 15.2786 60.598 15.8335 61.2667C16.1997 61.7078 19.7008 62.8279 23.6133 63.7561C32.6023 65.8873 33.477 66.239 34.1565 67.9954C34.4623 68.7855 35.3769 72.4656 36.1891 76.1733C37.0007 79.8809 37.8933 83.218 38.1721 83.5885C39.1547 84.8947 40.6242 84.2314 43.3466 81.2529C46.0484 78.2965 46.0964 78.1848 46.0576 74.9162C46.036 73.0864 45.837 70.3193 45.6159 68.7666C45.3948 67.214 45.4018 65.6366 45.631 65.2612C45.8608 64.8859 49.0286 61.614 52.6704 57.9905C57.0457 53.6384 59.4741 51.5842 59.8273 51.9375C60.1213 52.2314 62.7945 57.1352 65.7682 62.8355C69.3534 69.7088 71.5014 73.2606 72.1464 73.383C73.3862 73.6176 76.6042 70.2599 76.9693 68.3503C77.1187 67.5678 76.1361 60.5365 74.7851 52.7248L72.3292 38.5215L77.3328 33.0197C82.6842 27.1344 84.356 24.2783 84.3748 20.9891C84.384 19.4176 84.0108 18.5494 82.8104 17.3489C80.9164 15.4549 78.2474 15.2672 74.9491 16.7961Z" fill="#1E46A4"/>
</svg>
