<svg width="30" height="30" viewBox="0 0 30 30" fill="none" xmlns="http://www.w3.org/2000/svg">
<g clip-path="url(#clip0_978_1496)">
<path fill-rule="evenodd" clip-rule="evenodd" d="M11.7457 2.59687C10.1163 3.02395 9.10692 4.67135 9.45822 6.32994C9.4978 6.51614 9.62176 6.85676 9.734 7.08671C9.93531 7.49999 9.96499 7.53228 12.2858 9.85806C14.3551 11.9318 14.6556 12.2151 14.8171 12.2437C15.2712 12.325 15.1684 12.4096 17.7145 9.85806C20.0353 7.53228 20.065 7.49999 20.2663 7.08671C21.0559 5.46666 20.4426 3.62421 18.8455 2.81926C18.3666 2.57786 17.8806 2.48254 17.2772 2.51145C16.4892 2.54947 15.808 2.84114 15.2666 3.37161L15.0202 3.61301L14.6647 3.30468C14.2595 2.95312 13.7533 2.68463 13.2913 2.57603C12.8585 2.47447 12.178 2.48359 11.7457 2.59687ZM4.10171 3.66536C3.70432 3.79687 3.43869 3.96562 3.15171 4.269C2.87098 4.56588 2.74129 4.79348 2.62515 5.19296C2.55379 5.43827 2.54702 5.93645 2.56004 10.0745L2.57463 14.6825L2.70666 15.163C2.84728 15.675 3.21812 16.5021 3.48088 16.8891C3.56864 17.0182 4.49338 18.1489 5.53609 19.4018L7.43166 21.6797V23.1055L7.19989 23.1057C6.92254 23.1057 6.69077 23.2323 6.55275 23.4591C6.46083 23.6096 6.45562 23.7078 6.45562 25.3026C6.45562 26.8976 6.46083 26.9958 6.55275 27.1463C6.60614 27.2338 6.72124 27.3492 6.80874 27.4026C6.96577 27.4984 7.07124 27.4997 15.0001 27.4997C22.9291 27.4997 23.0345 27.4984 23.1916 27.4026C23.2791 27.3492 23.3942 27.2338 23.4475 27.1463C23.5395 26.9958 23.5447 26.8976 23.5447 25.3026C23.5447 23.7078 23.5395 23.6096 23.4475 23.4591C23.3095 23.2323 23.0778 23.1057 22.8004 23.1057L22.5684 23.1055V21.6792L24.3725 19.5154C25.3645 18.325 26.2796 17.2122 26.4059 17.0424C26.7192 16.6206 27.1254 15.7604 27.2897 15.1708L27.4259 14.6825L27.4403 10.0745C27.4559 5.02968 27.466 5.23072 27.1707 4.68515C26.9913 4.35338 26.5363 3.93984 26.1554 3.76145C25.8968 3.64036 25.7478 3.60546 25.4064 3.58619C24.7304 3.54739 24.227 3.72734 23.7514 4.17708C23.4408 4.47109 23.2754 4.73567 23.1488 5.1427C23.0632 5.41796 23.0567 5.63385 23.0567 8.28567V11.1331L22.7856 10.9862C22.1004 10.6151 21.3869 10.6091 20.6642 10.9685C20.2785 11.1601 15.5712 15.8784 15.2442 16.401C15.1233 16.594 15.0137 16.7521 15.0001 16.7521C14.9866 16.7521 14.877 16.594 14.7561 16.401C14.4301 15.8794 9.72228 11.1612 9.33609 10.9687C8.61447 10.6091 7.90015 10.6151 7.21473 10.9862L6.94338 11.1331V8.28567C6.94338 5.63385 6.93713 5.41796 6.85145 5.1427C6.80093 4.9802 6.70405 4.75286 6.63635 4.63723C6.45145 4.32161 6.009 3.93072 5.64338 3.75937C5.36525 3.62942 5.25145 3.60494 4.84937 3.59036C4.48531 3.57708 4.3176 3.594 4.10171 3.66536ZM12.1192 4.03984C11.3361 4.25624 10.8663 4.92213 10.9064 5.75806C10.9374 6.40728 10.9306 6.39843 13.0788 8.55468L15.0001 10.4833L16.9215 8.55468C19.0697 6.39843 19.0629 6.40728 19.0939 5.75806C19.1353 4.89348 18.6632 4.24713 17.8353 4.03515C17.1595 3.86197 16.7233 4.03749 15.9496 4.79322C15.0811 5.64192 14.9189 5.64166 14.0496 4.79244C13.6655 4.41692 13.4272 4.22525 13.2358 4.13775C12.8897 3.97916 12.471 3.94244 12.1194 4.03984M4.51942 5.09088C4.29807 5.15728 4.07541 5.43176 4.03869 5.68385C4.02176 5.79921 4.01551 7.8052 4.02437 10.1417C4.04051 14.3685 4.04129 14.3917 4.15015 14.7802C4.28036 15.2458 4.53895 15.807 4.77307 16.1328C4.86629 16.2625 5.81708 17.4182 6.88583 18.7008C7.95458 19.9833 8.84416 21.0726 8.86291 21.1211C8.8814 21.1695 8.8965 21.6359 8.8965 22.1573V23.1055H14.2676V21.2854C14.2676 19.2851 14.234 18.8568 14.0272 18.2417C13.7337 17.368 13.6408 17.2552 11.1184 14.7159C9.85614 13.445 8.75197 12.3612 8.66447 12.307C8.46161 12.1812 8.11812 12.1779 7.90718 12.2997C7.62958 12.4601 7.48869 12.926 7.63244 13.2088C7.66239 13.2674 8.3965 14.0294 9.26395 14.9023C11.0319 16.681 11.041 16.6937 10.877 17.1232C10.7298 17.5091 10.3298 17.7143 9.96213 17.593C9.84364 17.5539 9.27932 17.019 7.98609 15.7198C6.02593 13.7508 5.91734 13.6172 5.64025 12.8271L5.50301 12.4365L5.47879 8.98541C5.45458 5.5953 5.45249 5.53202 5.35353 5.39947C5.13817 5.11119 4.83088 4.99765 4.51942 5.09088ZM25.0403 5.08801C24.8876 5.13541 24.6929 5.29843 24.6025 5.45416C24.5619 5.52447 24.5392 6.51432 24.5218 8.994L24.4973 12.4365L24.36 12.8271C24.083 13.6172 23.9744 13.7508 22.0142 15.7198C20.721 17.019 20.1567 17.5539 20.0382 17.593C19.6705 17.7143 19.2705 17.5091 19.1233 17.1232C18.9593 16.6937 18.9684 16.681 20.7363 14.9023C21.6038 14.0294 22.3379 13.2674 22.3679 13.2088C22.5111 12.9268 22.3684 12.463 22.0876 12.2982C21.8822 12.1776 21.5374 12.1818 21.3358 12.3075C21.0585 12.4802 16.6918 16.9034 16.4666 17.2393C16.2033 17.6325 15.9973 18.0862 15.8666 18.5599C15.7718 18.9031 15.7629 19.0857 15.7444 21.018L15.7244 23.1055H21.1035V22.1573C21.1035 21.6359 21.1189 21.1695 21.1374 21.1211C21.1561 21.0726 22.0457 19.9836 23.1145 18.7008C24.1832 17.4182 25.134 16.2625 25.2272 16.1328C25.4707 15.7937 25.7241 15.2351 25.8517 14.7557L25.9621 14.3409V9.93775C25.9621 5.56666 25.9613 5.53359 25.8613 5.39973C25.6488 5.1151 25.3358 4.99635 25.0403 5.08801ZM7.91994 25.3026V26.0351H14.2676V24.5703H7.91994V25.3026ZM15.7324 25.3026V26.0351H22.0801V24.5703H15.7324V25.3026Z" fill="#1E46A4"/>
</g>
<defs>
<clipPath id="clip0_978_1496">
<rect width="25" height="25" fill="white" transform="translate(2.5 2.5)"/>
</clipPath>
</defs>
</svg>
