<svg width="24" height="24" viewBox="0 0 24 24" fill="none" xmlns="http://www.w3.org/2000/svg">
<path d="M12.4532 15.8636C12.1608 16.2151 12.1608 16.7849 12.4532 17.1364C12.7455 17.4879 13.2194 17.4879 13.5118 17.1364L17.2544 12.6364C17.5468 12.2849 17.5468 11.7151 17.2544 11.3636L13.5118 6.8636C13.2194 6.51213 12.7455 6.51213 12.4532 6.8636C12.1608 7.21508 12.1608 7.78492 12.4532 8.1364L14.918 11.1L4.70695 11.1C4.31651 11.1 4 11.5029 4 12C4 12.4971 4.31651 12.9 4.70695 12.9H14.918L12.4532 15.8636Z" fill="#0F172B"/>
<path fill-rule="evenodd" clip-rule="evenodd" d="M19.1579 3C19.623 3 20 3.40294 20 3.9V20.1C20 20.5971 19.623 21 19.1579 21C18.6928 21 18.3158 20.5971 18.3158 20.1V3.9C18.3158 3.40294 18.6928 3 19.1579 3Z" fill="#0F172B"/>
</svg>
