<svg width="30" height="30" viewBox="0 0 30 30" fill="none" xmlns="http://www.w3.org/2000/svg">
<path d="M17.737 17.2944L23.7406 11.2866L21.81 9.35345L18.7224 6.26182L12.7339 12.2557C12.1773 12.1131 11.6005 12.0395 11.0161 12.0395C9.17837 12.0395 7.41534 12.7704 6.11583 14.0714L15.9153 23.8816C17.2148 22.5806 17.945 20.8157 17.945 18.9759C17.9449 18.4041 17.8733 17.8399 17.737 17.2944Z" fill="#E33838"/>
<path d="M10.8475 19.1447L3.75 26.25M26.25 13.7984L21.81 9.35345M16.2126 3.75L21.81 9.35345M21.81 9.35345L23.7406 11.2866L17.737 17.2944C17.8733 17.8399 17.9449 18.4041 17.945 18.9759C17.945 20.8157 17.2148 22.5806 15.9153 23.8816L6.11583 14.0714C7.41534 12.7704 9.17837 12.0395 11.0161 12.0395C11.6005 12.0395 12.1773 12.1131 12.7339 12.2557L18.7224 6.26182L21.81 9.35345Z" stroke="#E33838" stroke-width="2" stroke-linecap="round"/>
</svg>
