<svg width="24" height="24" viewBox="0 0 24 24" fill="none" xmlns="http://www.w3.org/2000/svg">
<path fill-rule="evenodd" clip-rule="evenodd" d="M6 20H18L18 7.82843L14.1716 4H6V20ZM6 2C4.89543 2 4 2.89543 4 4V20C4 21.1046 4.89543 22 6 22H18C19.1046 22 20 21.1046 20 20V7.82843C20 7.29799 19.7893 6.78929 19.4142 6.41421L15.5858 2.58579C15.2107 2.21071 14.702 2 14.1716 2H6Z" fill="#0F172B"/>
<path d="M8 17C8 16.4477 8.44772 16 9 16H15C15.5523 16 16 16.4477 16 17C16 17.5523 15.5523 18 15 18H9C8.44772 18 8 17.5523 8 17Z" fill="#0F172B"/>
<path d="M8 13C8 12.4477 8.44772 12 9 12H13C13.5523 12 14 12.4477 14 13C14 13.5523 13.5523 14 13 14H9C8.44772 14 8 13.5523 8 13Z" fill="#0F172B"/>
<path d="M8 9C8 8.44772 8.44772 8 9 8H11C11.5523 8 12 8.44772 12 9C12 9.55228 11.5523 10 11 10H9C8.44772 10 8 9.55228 8 9Z" fill="#0F172B"/>
</svg>
