<svg width="30" height="30" viewBox="0 0 30 30" fill="none" xmlns="http://www.w3.org/2000/svg">
<path fill-rule="evenodd" clip-rule="evenodd" d="M15 25C20.5228 25 25 20.5228 25 15C25 9.47715 20.5228 5 15 5C9.47715 5 5 9.47715 5 15C5 20.5228 9.47715 25 15 25ZM15 27.5C21.9036 27.5 27.5 21.9036 27.5 15C27.5 8.09644 21.9036 2.5 15 2.5C8.09644 2.5 2.5 8.09644 2.5 15C2.5 21.9036 8.09644 27.5 15 27.5Z" fill="#1E46A4"/>
<path fill-rule="evenodd" clip-rule="evenodd" d="M20.9432 11.6798C21.3962 12.2007 21.3412 12.9903 20.8202 13.4433L13.6327 19.6933C13.1354 20.1257 12.3878 20.0978 11.9242 19.6294L9.11169 16.7885C8.62599 16.2979 8.62997 15.5065 9.12057 15.0208C9.61117 14.5351 10.4026 14.5391 10.8883 15.0297L12.8765 17.0379L19.1798 11.5568C19.7007 11.1038 20.4902 11.1588 20.9432 11.6798Z" fill="#1E46A4"/>
</svg>
